<svg xmlns="http://www.w3.org/2000/svg" id="canvas" viewBox="471.414 431.437 880.872 183.081"><path d="M 505.05,453.00 C 503.34 454.28, 503.17 456.27, 502.45 460.04 C 501.73 463.82, 502.03 466.38, 501.46 471.87 C 500.88 477.37, 500.46 480.95, 499.56 487.51 C 498.66 494.07, 498.14 497.64, 496.95 504.69 C 495.75 511.75, 495.00 515.58, 493.58 522.79 C 492.16 530.00, 491.33 533.89, 489.85 540.75 C 488.36 547.62, 487.63 551.17, 486.16 557.11 C 484.68 563.05, 483.91 566.08, 482.46 570.46 C 481.01 574.85, 479.41 576.55, 478.89 579.03 C 478.38 581.51, 479.16 581.96, 479.89 582.86 C 480.62 583.76, 481.82 583.65, 482.54 583.52 C 483.27 583.38, 484.40 582.04, 483.51 582.18 C 482.62 582.31, 478.71 583.33, 478.08 584.19 C 477.46 585.04, 478.99 586.09, 480.39 586.45 C 481.79 586.81, 483.30 586.84, 485.08 585.99 C 486.87 585.13, 488.26 584.91, 489.31 582.17 C 490.37 579.43, 489.71 577.03, 490.37 572.29 C 491.03 567.56, 491.55 564.55, 492.62 558.48 C 493.69 552.42, 494.38 548.87, 495.72 541.96 C 497.06 535.05, 497.86 531.16, 499.33 523.94 C 500.79 516.72, 501.58 512.88, 503.04 505.84 C 504.50 498.80, 505.26 495.27, 506.62 488.73 C 507.98 482.19, 508.79 478.63, 509.86 473.13 C 510.93 467.63, 511.73 465.12, 511.96 461.23 C 512.20 457.34, 512.40 455.32, 511.02 453.68 C 509.64 452.04, 506.76 451.73, 505.05 453.00" style="stroke: black; fill: black;"/><path d="M 486.32,453.98 C 488.13 454.85, 489.24 454.56, 491.21 454.03 C 493.18 453.50, 493.81 452.79, 496.17 451.33 C 498.54 449.86, 499.64 448.23, 503.04 446.70 C 506.44 445.18, 508.60 444.53, 513.18 443.68 C 517.77 442.83, 520.51 442.51, 525.97 442.45 C 531.42 442.39, 534.48 442.52, 540.44 443.38 C 546.40 444.24, 549.71 444.84, 555.76 446.74 C 561.81 448.65, 565.05 449.90, 570.70 452.90 C 576.35 455.90, 579.27 457.70, 584.01 461.75 C 588.75 465.79, 591.02 468.14, 594.40 473.12 C 597.79 478.10, 599.20 480.88, 600.94 486.65 C 602.68 492.41, 603.18 495.54, 603.10 501.96 C 603.02 508.38, 602.52 511.89, 600.55 518.73 C 598.57 525.57, 597.05 529.23, 593.22 536.14 C 589.40 543.06, 586.86 546.71, 581.42 553.31 C 575.99 559.92, 572.64 563.26, 566.05 569.17 C 559.45 575.08, 555.62 577.98, 548.46 582.86 C 541.31 587.75, 537.33 590.05, 530.26 593.59 C 523.19 597.13, 519.45 598.59, 513.13 600.57 C 506.82 602.56, 503.62 603.14, 498.68 603.52 C 493.74 603.90, 491.54 603.13, 488.44 602.49 C 485.34 601.85, 484.66 600.83, 483.18 600.32 C 481.70 599.82, 481.61 599.83, 481.03 599.97 C 480.46 600.10, 480.58 600.76, 480.30 601.00 C 480.03 601.25, 480.32 601.67, 479.65 601.19 C 478.99 600.71, 477.97 598.75, 476.98 598.61 C 475.98 598.47, 475.05 599.18, 474.68 600.50 C 474.31 601.83, 474.22 603.48, 475.12 605.26 C 476.02 607.04, 476.70 608.16, 479.16 609.40 C 481.62 610.64, 483.31 611.27, 487.41 611.46 C 491.51 611.64, 494.13 611.43, 499.64 610.33 C 505.16 609.23, 508.40 608.40, 514.98 605.95 C 521.57 603.50, 525.34 601.92, 532.57 598.08 C 539.81 594.25, 543.84 591.87, 551.17 586.79 C 558.49 581.72, 562.40 578.78, 569.21 572.71 C 576.01 566.64, 579.49 563.25, 585.20 556.45 C 590.91 549.65, 593.63 545.93, 597.77 538.71 C 601.92 531.48, 603.66 527.66, 605.91 520.33 C 608.16 513.01, 608.84 509.16, 609.02 502.07 C 609.21 494.99, 608.71 491.39, 606.82 484.90 C 604.92 478.42, 603.30 475.22, 599.55 469.65 C 595.79 464.07, 593.24 461.48, 588.06 457.02 C 582.89 452.56, 579.74 450.65, 573.68 447.36 C 567.62 444.06, 564.20 442.72, 557.78 440.54 C 551.37 438.37, 547.91 437.66, 541.58 436.48 C 535.26 435.31, 532.06 435.04, 526.18 434.68 C 520.29 434.31, 517.44 434.41, 512.17 434.66 C 506.90 434.91, 504.36 435.08, 499.83 435.92 C 495.29 436.76, 492.81 437.27, 489.49 438.85 C 486.17 440.44, 484.70 441.67, 483.23 443.83 C 481.76 445.99, 481.53 447.63, 482.15 449.66 C 482.76 451.69, 484.50 453.10, 486.32 453.98" style="stroke: black; fill: black;"/><path d="M 649.57,546.74 C 650.20 544.80, 650.01 543.63, 649.08 542.05 C 648.15 540.47, 647.03 539.67, 644.93 538.84 C 642.83 538.01, 641.26 537.88, 638.59 537.91 C 635.93 537.94, 634.46 538.25, 631.60 538.98 C 628.75 539.71, 627.20 540.13, 624.32 541.55 C 621.43 542.98, 619.85 543.92, 617.19 546.12 C 614.52 548.31, 613.29 549.75, 611.00 552.51 C 608.72 555.28, 607.43 556.75, 605.75 559.94 C 604.08 563.14, 603.19 565.00, 602.61 568.50 C 602.04 571.99, 602.05 574.04, 602.87 577.42 C 603.68 580.80, 604.50 582.66, 606.70 585.39 C 608.89 588.11, 610.52 589.60, 613.84 591.06 C 617.16 592.52, 619.41 592.87, 623.30 592.67 C 627.20 592.47, 629.33 591.59, 633.33 590.06 C 637.34 588.53, 639.40 587.39, 643.31 585.03 C 647.22 582.67, 649.26 581.19, 652.91 578.28 C 656.56 575.36, 658.40 573.67, 661.56 570.45 C 664.73 567.24, 666.20 565.43, 668.74 562.20 C 671.27 558.96, 672.61 557.36, 674.23 554.29 C 675.85 551.22, 676.33 549.52, 676.84 546.85 C 677.34 544.18, 677.34 542.76, 676.74 540.94 C 676.14 539.12, 675.37 538.25, 673.85 537.75 C 672.33 537.25, 670.68 537.36, 669.14 538.44 C 667.59 539.53, 666.22 541.21, 666.10 543.18 C 665.98 545.15, 666.81 546.85, 668.52 548.29 C 670.22 549.74, 671.89 549.93, 674.61 550.39 C 677.34 550.86, 678.97 551.15, 682.15 550.62 C 685.32 550.10, 687.06 549.35, 690.49 547.76 C 693.93 546.18, 695.63 545.03, 699.31 542.70 C 702.98 540.38, 704.94 539.09, 708.87 536.13 C 712.79 533.18, 714.89 531.51, 718.93 527.91 C 722.97 524.32, 725.08 522.27, 729.05 518.17 C 733.02 514.07, 735.06 511.82, 738.76 507.41 C 742.46 503.00, 744.28 500.59, 747.56 496.11 C 750.83 491.63, 752.41 489.28, 755.15 485.02 C 757.88 480.75, 759.09 478.56, 761.24 474.78 C 763.40 471.00, 764.98 469.32, 765.92 466.11 C 766.86 462.89, 766.93 461.15, 765.94 458.71 C 764.94 456.26, 763.48 454.87, 760.94 453.89 C 758.39 452.91, 755.82 452.53, 753.22 453.79 C 750.62 455.06, 749.63 456.78, 747.94 460.23 C 746.25 463.68, 746.21 466.29, 744.77 471.03 C 743.32 475.77, 742.46 478.47, 740.70 483.93 C 738.95 489.39, 737.88 492.47, 736.00 498.35 C 734.12 504.22, 733.15 507.44, 731.29 513.32 C 729.43 519.20, 728.46 522.33, 726.69 527.75 C 724.92 533.16, 724.10 535.96, 722.45 540.40 C 720.81 544.83, 719.27 546.70, 718.46 549.90 C 717.65 553.11, 717.46 554.46, 718.42 556.43 C 719.37 558.40, 720.89 559.17, 723.22 559.76 C 725.55 560.34, 727.73 560.42, 730.07 559.36 C 732.40 558.29, 733.40 557.00, 734.89 554.43 C 736.38 551.86, 736.14 549.61, 737.51 546.51 C 738.89 543.40, 739.83 541.74, 741.76 538.91 C 743.69 536.08, 744.95 534.64, 747.15 532.35 C 749.35 530.05, 750.69 529.06, 752.76 527.44 C 754.83 525.82, 755.92 525.31, 757.51 524.25 C 759.09 523.20, 759.86 522.75, 760.70 522.17 C 761.55 521.60, 761.64 521.44, 761.74 521.39 C 761.85 521.34, 761.49 521.41, 761.23 521.92 C 760.97 522.42, 760.73 522.73, 760.43 523.92 C 760.14 525.12, 760.05 525.97, 759.75 527.91 C 759.44 529.85, 759.41 531.14, 758.93 533.62 C 758.45 536.10, 758.17 537.66, 757.33 540.31 C 756.50 542.97, 755.62 544.36, 754.75 546.88 C 753.88 549.41, 753.46 550.64, 752.99 552.93 C 752.53 555.22, 752.11 556.21, 752.43 558.33 C 752.76 560.45, 753.20 561.65, 754.62 563.52 C 756.05 565.39, 757.42 566.54, 759.54 567.69 C 761.66 568.84, 762.94 569.27, 765.22 569.26 C 767.51 569.26, 768.63 568.81, 770.97 567.65 C 773.31 566.49, 774.35 565.27, 776.92 563.44 C 779.48 561.61, 780.81 560.43, 783.80 558.50 C 786.78 556.56, 788.47 555.62, 791.83 553.78 C 795.20 551.94, 797.07 550.99, 800.61 549.28 C 804.15 547.57, 805.95 546.69, 809.53 545.23 C 813.12 543.76, 814.94 543.12, 818.54 541.95 C 822.13 540.78, 824.03 540.26, 827.51 539.38 C 830.99 538.50, 832.70 538.11, 835.93 537.55 C 839.16 536.98, 840.78 536.94, 843.68 536.56 C 846.57 536.17, 847.98 536.07, 850.40 535.63 C 852.82 535.19, 853.89 534.92, 855.77 534.38 C 857.66 533.83, 858.43 533.89, 859.83 532.91 C 861.22 531.92, 862.02 531.37, 862.76 529.45 C 863.51 527.53, 863.90 525.60, 863.56 523.30 C 863.21 521.00, 862.54 519.51, 861.04 517.95 C 859.54 516.39, 858.37 515.87, 856.06 515.51 C 853.75 515.15, 852.22 515.56, 849.48 516.17 C 846.75 516.77, 845.26 517.22, 842.37 518.51 C 839.48 519.81, 837.89 520.61, 835.02 522.62 C 832.14 524.64, 830.69 526.00, 828.00 528.60 C 825.31 531.19, 823.94 532.65, 821.58 535.60 C 819.22 538.55, 817.93 540.12, 816.18 543.35 C 814.44 546.57, 813.48 548.37, 812.86 551.73 C 812.25 555.08, 812.34 556.97, 813.10 560.12 C 813.85 563.27, 814.57 565.01, 816.65 567.48 C 818.72 569.96, 820.36 571.23, 823.47 572.50 C 826.57 573.77, 828.70 574.24, 832.19 573.83 C 835.69 573.43, 837.49 572.30, 840.95 570.49 C 844.41 568.68, 846.10 567.32, 849.48 564.79 C 852.86 562.27, 854.55 560.75, 857.86 557.85 C 861.17 554.95, 862.89 553.22, 866.03 550.29 C 869.17 547.35, 871.48 545.75, 873.55 543.18 C 875.62 540.61, 876.37 539.20, 876.38 537.44 C 876.38 535.68, 875.15 534.72, 873.57 534.38 C 872.00 534.04, 870.22 534.21, 868.49 535.73 C 866.77 537.24, 865.53 538.89, 864.97 541.95 C 864.41 545.00, 865.06 547.36, 865.67 551.01 C 866.29 554.67, 866.47 556.86, 868.03 560.23 C 869.60 563.60, 870.75 565.35, 873.49 567.88 C 876.23 570.41, 878.05 571.94, 881.72 572.88 C 885.39 573.83, 887.74 573.56, 891.85 572.62 C 895.96 571.67, 897.97 570.47, 902.26 568.15 C 906.56 565.83, 908.72 564.30, 913.32 561.03 C 917.92 557.75, 920.38 555.78, 925.25 551.79 C 930.12 547.80, 932.72 545.50, 937.67 541.09 C 942.63 536.67, 945.18 534.22, 950.04 529.71 C 954.90 525.20, 957.36 522.81, 961.96 518.52 C 966.57 514.24, 968.86 512.05, 973.06 508.29 C 977.26 504.53, 979.26 502.69, 982.96 499.71 C 986.67 496.73, 988.44 495.37, 991.58 493.38 C 994.71 491.39, 996.44 490.98, 998.62 489.77 C 1000.81 488.56, 1001.40 487.91, 1002.51 487.32 C 1003.62 486.73, 1003.79 486.70, 1004.16 486.82 C 1004.53 486.95, 1004.30 487.17, 1004.35 487.94 C 1004.40 488.72, 1004.19 489.26, 1004.42 490.68 C 1004.65 492.09, 1004.96 493.07, 1005.51 495.02 C 1006.05 496.97, 1006.53 498.10, 1007.14 500.44 C 1007.75 502.78, 1008.03 504.14, 1008.56 506.71 C 1009.09 509.28, 1009.34 510.70, 1009.77 513.30 C 1010.20 515.91, 1010.36 517.22, 1010.72 519.72 C 1011.08 522.23, 1011.19 523.50, 1011.57 525.83 C 1011.95 528.15, 1011.94 529.33, 1012.63 531.35 C 1013.32 533.38, 1013.56 534.40, 1015.03 535.95 C 1016.49 537.51, 1017.63 538.30, 1019.94 539.13 C 1022.26 539.95, 1024.09 540.34, 1026.60 540.09 C 1029.11 539.83, 1030.44 539.32, 1032.49 537.86 C 1034.55 536.40, 1035.38 535.34, 1036.89 532.78 C 1038.39 530.22, 1038.47 528.24, 1040.03 525.04 C 1041.59 521.85, 1042.58 520.11, 1044.69 516.80 C 1046.81 513.49, 1048.03 511.80, 1050.60 508.49 C 1053.18 505.19, 1054.61 503.41, 1057.55 500.27 C 1060.48 497.13, 1062.09 495.60, 1065.29 492.80 C 1068.49 490.00, 1070.14 488.63, 1073.53 486.29 C 1076.93 483.94, 1078.75 482.89, 1082.25 481.09 C 1085.76 479.28, 1087.54 478.51, 1091.06 477.27 C 1094.58 476.03, 1096.36 475.51, 1099.86 474.88 C 1103.37 474.25, 1105.19 474.17, 1108.58 474.13 C 1111.96 474.10, 1113.61 474.21, 1116.78 474.70 C 1119.94 475.19, 1121.61 475.61, 1124.40 476.57 C 1127.19 477.54, 1128.51 478.25, 1130.73 479.52 C 1132.96 480.78, 1133.91 481.66, 1135.54 482.88 C 1137.17 484.10, 1137.93 484.64, 1138.88 485.63 C 1139.82 486.62, 1140.10 486.97, 1140.28 487.81 C 1140.45 488.66, 1140.36 488.82, 1139.74 489.85 C 1139.11 490.87, 1138.54 491.17, 1137.13 492.93 C 1135.72 494.69, 1135.09 496.22, 1132.68 498.64 C 1130.27 501.06, 1128.66 502.47, 1125.07 505.01 C 1121.48 507.56, 1119.27 508.85, 1114.73 511.36 C 1110.19 513.87, 1107.59 515.13, 1102.38 517.56 C 1097.17 519.98, 1094.29 521.17, 1088.67 523.50 C 1083.05 525.83, 1079.99 526.97, 1074.28 529.18 C 1068.56 531.40, 1065.61 532.53, 1060.08 534.59 C 1054.56 536.64, 1051.76 537.62, 1046.65 539.47 C 1041.54 541.32, 1039.03 542.21, 1034.53 543.83 C 1030.04 545.45, 1027.94 546.23, 1024.17 547.56 C 1020.41 548.90, 1018.41 548.88, 1015.69 550.51 C 1012.98 552.14, 1012.00 553.32, 1010.60 555.71 C 1009.20 558.10, 1008.67 559.65, 1008.70 562.45 C 1008.74 565.26, 1009.19 567.20, 1010.77 569.73 C 1012.35 572.26, 1013.60 573.82, 1016.61 575.10 C 1019.62 576.37, 1021.76 575.93, 1025.80 576.10 C 1029.84 576.26, 1032.11 576.09, 1036.81 575.92 C 1041.52 575.74, 1044.05 575.65, 1049.33 575.21 C 1054.60 574.76, 1057.44 574.47, 1063.21 573.70 C 1068.98 572.93, 1072.15 572.47, 1078.19 571.34 C 1084.24 570.21, 1087.38 569.52, 1093.43 568.05 C 1099.48 566.57, 1102.60 565.72, 1108.45 563.98 C 1114.29 562.23, 1117.31 561.28, 1122.67 559.33 C 1128.03 557.38, 1130.59 556.27, 1135.24 554.22 C 1139.89 552.18, 1142.08 551.19, 1145.90 549.12 C 1149.73 547.04, 1151.79 546.30, 1154.37 543.86 C 1156.95 541.42, 1157.82 539.82, 1158.80 536.92 C 1159.78 534.02, 1159.90 532.27, 1159.25 529.37 C 1158.61 526.47, 1157.69 524.62, 1155.57 522.44 C 1153.45 520.26, 1151.70 519.29, 1148.65 518.45 C 1145.60 517.61, 1143.66 517.70, 1140.33 518.23 C 1136.99 518.77, 1135.17 519.46, 1131.99 521.12 C 1128.80 522.78, 1127.24 524.09, 1124.39 526.54 C 1121.54 528.99, 1120.11 530.38, 1117.74 533.37 C 1115.37 536.37, 1114.22 538.08, 1112.55 541.52 C 1110.88 544.97, 1110.05 546.85, 1109.37 550.59 C 1108.69 554.33, 1108.48 556.49, 1109.15 560.24 C 1109.81 563.99, 1110.56 566.15, 1112.70 569.34 C 1114.84 572.53, 1116.51 574.07, 1119.85 576.18 C 1123.18 578.29, 1125.32 579.01, 1129.38 579.89 C 1133.44 580.78, 1135.68 580.81, 1140.16 580.59 C 1144.65 580.37, 1147.07 579.94, 1151.79 578.82 C 1156.50 577.69, 1159.00 576.80, 1163.75 574.95 C 1168.49 573.09, 1170.88 571.84, 1175.50 569.54 C 1180.13 567.23, 1182.52 565.87, 1186.87 563.40 C 1191.22 560.93, 1193.38 559.44, 1197.26 557.17 C 1201.13 554.91, 1203.27 553.86, 1206.25 552.07 C 1209.22 550.27, 1211.01 549.67, 1212.13 548.22 C 1213.26 546.76, 1212.69 545.47, 1211.88 544.79 C 1211.06 544.11, 1209.61 544.01, 1208.05 544.84 C 1206.49 545.66, 1205.10 546.58, 1204.08 548.91 C 1203.06 551.24, 1203.12 553.22, 1202.93 556.50 C 1202.74 559.78, 1202.72 561.81, 1203.13 565.32 C 1203.54 568.83, 1203.74 570.79, 1204.98 574.05 C 1206.22 577.32, 1207.11 579.00, 1209.31 581.63 C 1211.50 584.27, 1212.92 585.56, 1215.94 587.24 C 1218.96 588.91, 1220.89 589.59, 1224.40 589.99 C 1227.91 590.40, 1229.95 590.18, 1233.50 589.25 C 1237.05 588.33, 1238.82 587.28, 1242.15 585.37 C 1245.48 583.46, 1247.15 582.20, 1250.14 579.69 C 1253.14 577.19, 1254.54 575.67, 1257.12 572.86 C 1259.71 570.04, 1260.86 568.43, 1263.07 565.62 C 1265.27 562.81, 1266.61 561.45, 1268.15 558.81 C 1269.68 556.17, 1270.09 554.59, 1270.73 552.43 C 1271.37 550.28, 1271.55 549.23, 1271.36 548.05 C 1271.16 546.87, 1270.45 546.40, 1269.77 546.54 C 1269.10 546.68, 1268.03 547.58, 1267.98 548.76 C 1267.94 549.93, 1268.17 551.11, 1269.53 552.43 C 1270.88 553.76, 1272.12 554.55, 1274.76 555.40 C 1277.40 556.25, 1279.27 556.22, 1282.72 556.69 C 1286.18 557.16, 1288.15 557.41, 1292.03 557.75 C 1295.91 558.10, 1298.00 558.25, 1302.12 558.43 C 1306.24 558.61, 1308.46 558.67, 1312.62 558.64 C 1316.79 558.61, 1318.94 558.46, 1322.95 558.27 C 1326.96 558.07, 1328.97 557.89, 1332.67 557.67 C 1336.36 557.45, 1338.60 557.94, 1341.41 557.15 C 1344.22 556.36, 1345.16 555.18, 1346.73 553.73 C 1348.29 552.29, 1349.04 551.48, 1349.25 549.92 C 1349.45 548.36, 1348.81 547.03, 1347.77 545.94 C 1346.72 544.85, 1345.84 544.91, 1344.02 544.45 C 1342.21 543.99, 1341.28 543.33, 1338.68 543.64 C 1336.07 543.95, 1334.31 545.22, 1331.00 545.99 C 1327.69 546.77, 1325.81 547.12, 1322.14 547.51 C 1318.47 547.90, 1316.46 547.98, 1312.65 547.93 C 1308.83 547.88, 1306.74 547.74, 1303.06 547.26 C 1299.38 546.78, 1297.51 546.49, 1294.24 545.54 C 1290.98 544.59, 1289.39 543.79, 1286.73 542.53 C 1284.08 541.27, 1283.07 540.21, 1280.96 539.24 C 1278.84 538.27, 1278.12 537.83, 1276.14 537.67 C 1274.16 537.50, 1273.11 537.83, 1271.04 538.41 C 1268.98 538.99, 1267.70 539.63, 1265.81 540.58 C 1263.92 541.53, 1263.01 541.89, 1261.59 543.15 C 1260.18 544.41, 1259.91 545.13, 1258.74 546.88 C 1257.57 548.62, 1256.98 549.61, 1255.76 551.90 C 1254.55 554.18, 1254.20 555.78, 1252.65 558.32 C 1251.10 560.87, 1250.09 562.30, 1248.03 564.62 C 1245.97 566.93, 1244.75 568.10, 1242.35 569.89 C 1239.95 571.67, 1238.49 572.47, 1236.04 573.53 C 1233.60 574.60, 1232.24 574.77, 1230.10 575.22 C 1227.97 575.67, 1227.03 575.74, 1225.38 575.79 C 1223.74 575.83, 1223.05 575.89, 1221.90 575.45 C 1220.75 575.02, 1220.35 574.70, 1219.65 573.61 C 1218.95 572.52, 1218.68 571.74, 1218.40 570.01 C 1218.13 568.27, 1218.04 567.19, 1218.30 564.93 C 1218.56 562.67, 1219.12 561.30, 1219.70 558.71 C 1220.29 556.13, 1221.34 554.69, 1221.22 552.00 C 1221.10 549.30, 1220.54 547.68, 1219.10 545.25 C 1217.67 542.82, 1216.46 541.23, 1214.02 539.85 C 1211.59 538.47, 1209.74 537.74, 1206.94 538.35 C 1204.15 538.96, 1203.01 540.67, 1200.05 542.88 C 1197.09 545.10, 1195.65 546.82, 1192.14 549.44 C 1188.63 552.05, 1186.58 553.49, 1182.50 555.97 C 1178.42 558.46, 1176.09 559.75, 1171.73 561.87 C 1167.36 563.99, 1165.04 565.07, 1160.67 566.56 C 1156.30 568.05, 1153.97 568.66, 1149.87 569.31 C 1145.76 569.97, 1143.62 570.03, 1140.14 569.83 C 1136.66 569.63, 1135.05 569.21, 1132.45 568.32 C 1129.86 567.43, 1128.83 566.67, 1127.15 565.39 C 1125.47 564.11, 1124.98 563.41, 1124.05 561.91 C 1123.12 560.41, 1122.82 559.68, 1122.51 557.88 C 1122.19 556.08, 1122.11 555.04, 1122.47 552.92 C 1122.83 550.79, 1123.21 549.50, 1124.31 547.28 C 1125.41 545.05, 1126.24 543.76, 1127.95 541.81 C 1129.67 539.87, 1130.79 538.91, 1132.88 537.55 C 1134.97 536.20, 1136.35 535.78, 1138.40 535.03 C 1140.45 534.28, 1141.46 534.17, 1143.13 533.80 C 1144.79 533.44, 1145.59 533.51, 1146.71 533.22 C 1147.83 532.92, 1148.12 532.63, 1148.73 532.34 C 1149.33 532.04, 1149.66 531.71, 1149.74 531.73 C 1149.82 531.76, 1149.83 531.70, 1149.12 532.47 C 1148.41 533.24, 1147.85 533.83, 1146.19 535.59 C 1144.52 537.34, 1143.70 538.96, 1140.80 541.25 C 1137.91 543.53, 1135.86 544.75, 1131.71 547.01 C 1127.56 549.27, 1125.10 550.47, 1120.05 552.54 C 1114.99 554.61, 1112.07 555.60, 1106.43 557.36 C 1100.78 559.12, 1097.72 559.97, 1091.83 561.36 C 1085.94 562.75, 1082.86 563.38, 1076.97 564.32 C 1071.09 565.26, 1067.98 565.62, 1062.39 566.07 C 1056.80 566.51, 1054.03 566.65, 1049.03 566.55 C 1044.03 566.46, 1041.58 566.27, 1037.38 565.60 C 1033.19 564.93, 1031.11 564.27, 1028.04 563.20 C 1024.97 562.13, 1023.97 560.78, 1022.03 560.25 C 1020.08 559.72, 1019.35 560.16, 1018.33 560.55 C 1017.32 560.94, 1016.99 561.77, 1016.95 562.20 C 1016.91 562.63, 1017.11 562.93, 1018.14 562.70 C 1019.16 562.47, 1020.03 562.31, 1022.08 561.06 C 1024.12 559.81, 1025.23 558.37, 1028.36 556.45 C 1031.49 554.54, 1033.54 553.50, 1037.73 551.49 C 1041.93 549.48, 1044.37 548.46, 1049.34 546.39 C 1054.31 544.31, 1057.10 543.27, 1062.58 541.11 C 1068.06 538.95, 1071.01 537.81, 1076.75 535.59 C 1082.50 533.38, 1085.56 532.26, 1091.29 530.04 C 1097.02 527.81, 1099.96 526.68, 1105.40 524.45 C 1110.83 522.22, 1113.53 521.09, 1118.47 518.88 C 1123.42 516.67, 1125.82 515.60, 1130.12 513.41 C 1134.41 511.21, 1136.39 510.18, 1139.95 507.91 C 1143.51 505.64, 1145.50 504.82, 1147.91 502.07 C 1150.32 499.32, 1151.13 497.42, 1152.01 494.16 C 1152.88 490.89, 1152.81 488.94, 1152.29 485.76 C 1151.77 482.57, 1151.09 480.95, 1149.42 478.21 C 1147.74 475.47, 1146.53 474.14, 1143.92 472.07 C 1141.31 470.01, 1139.62 469.28, 1136.36 467.89 C 1133.11 466.49, 1131.31 465.98, 1127.65 465.11 C 1124.00 464.25, 1121.97 463.89, 1118.07 463.56 C 1114.17 463.22, 1112.21 463.19, 1108.16 463.44 C 1104.11 463.69, 1101.94 463.90, 1097.83 464.81 C 1093.72 465.72, 1091.63 466.44, 1087.62 468.00 C 1083.60 469.56, 1081.65 470.49, 1077.76 472.61 C 1073.87 474.73, 1071.88 475.97, 1068.16 478.59 C 1064.44 481.22, 1062.66 482.73, 1059.17 485.74 C 1055.67 488.74, 1053.95 490.37, 1050.69 493.62 C 1047.43 496.87, 1045.87 498.70, 1042.88 501.98 C 1039.90 505.25, 1038.51 506.94, 1035.77 509.99 C 1033.02 513.05, 1031.73 514.71, 1029.18 517.25 C 1026.62 519.80, 1024.81 520.67, 1022.98 522.70 C 1021.15 524.73, 1020.55 525.83, 1020.05 527.42 C 1019.54 529.02, 1019.83 529.70, 1020.46 530.67 C 1021.09 531.64, 1022.19 532.07, 1023.22 532.28 C 1024.24 532.48, 1025.01 532.41, 1025.57 531.72 C 1026.13 531.03, 1026.00 530.33, 1026.01 528.81 C 1026.03 527.30, 1025.82 526.27, 1025.67 524.13 C 1025.51 521.99, 1025.44 520.69, 1025.24 518.12 C 1025.04 515.55, 1024.97 514.09, 1024.67 511.28 C 1024.36 508.47, 1024.15 506.95, 1023.73 504.07 C 1023.31 501.20, 1023.13 499.73, 1022.55 496.90 C 1021.98 494.08, 1021.84 492.58, 1020.85 489.93 C 1019.87 487.28, 1019.32 485.84, 1017.65 483.67 C 1015.98 481.50, 1014.83 480.47, 1012.51 479.07 C 1010.20 477.67, 1008.73 477.10, 1006.08 476.66 C 1003.43 476.21, 1002.02 476.25, 999.27 476.85 C 996.53 477.45, 995.09 477.84, 992.38 479.66 C 989.66 481.48, 988.63 483.13, 985.69 485.95 C 982.75 488.77, 981.16 490.34, 977.67 493.78 C 974.18 497.22, 972.27 499.16, 968.23 503.16 C 964.18 507.15, 961.96 509.39, 957.44 513.76 C 952.93 518.12, 950.49 520.53, 945.66 524.99 C 940.84 529.45, 938.28 531.85, 933.31 536.06 C 928.33 540.27, 925.70 542.46, 920.79 546.04 C 915.89 549.63, 913.33 551.39, 908.79 553.99 C 904.26 556.58, 901.93 557.67, 898.12 559.03 C 894.31 560.39, 892.41 560.53, 889.75 560.79 C 887.09 561.04, 886.31 560.63, 884.82 560.31 C 883.32 559.98, 882.94 560.05, 882.29 559.16 C 881.64 558.28, 881.66 557.61, 881.57 555.87 C 881.49 554.12, 881.47 552.84, 881.86 550.42 C 882.25 548.00, 883.52 546.48, 883.53 543.77 C 883.53 541.07, 883.25 539.30, 881.87 536.90 C 880.49 534.49, 879.04 533.07, 876.63 531.76 C 874.23 530.45, 872.39 529.75, 869.84 530.34 C 867.29 530.94, 866.21 532.26, 863.88 534.73 C 861.55 537.21, 860.78 539.71, 858.19 542.70 C 855.60 545.68, 853.95 547.21, 850.93 549.66 C 847.91 552.11, 846.15 553.27, 843.07 554.95 C 840.00 556.63, 838.19 557.22, 835.56 558.05 C 832.94 558.87, 831.70 558.69, 829.96 559.08 C 828.22 559.47, 827.76 559.82, 826.87 560.00 C 825.99 560.18, 825.82 560.31, 825.51 559.98 C 825.21 559.64, 825.20 559.36, 825.34 558.33 C 825.49 557.29, 825.67 556.55, 826.23 554.81 C 826.78 553.08, 827.02 551.85, 828.13 549.66 C 829.25 547.47, 830.03 546.03, 831.81 543.87 C 833.58 541.70, 834.81 540.52, 837.00 538.83 C 839.18 537.14, 840.54 536.47, 842.75 535.41 C 844.96 534.36, 846.14 534.07, 848.05 533.54 C 849.96 533.02, 850.84 532.91, 852.32 532.79 C 853.80 532.67, 854.49 533.20, 855.45 532.95 C 856.42 532.71, 856.62 532.55, 857.13 531.57 C 857.65 530.59, 857.71 529.59, 858.02 528.05 C 858.33 526.51, 858.83 525.14, 858.68 523.88 C 858.52 522.61, 858.28 522.16, 857.27 521.73 C 856.25 521.30, 855.41 521.62, 853.58 521.72 C 851.75 521.82, 850.60 521.83, 848.11 522.23 C 845.62 522.63, 844.13 522.96, 841.14 523.74 C 838.15 524.51, 836.51 525.10, 833.17 526.13 C 829.84 527.15, 828.06 527.67, 824.46 528.84 C 820.85 530.01, 818.90 530.64, 815.13 531.98 C 811.37 533.33, 809.42 534.05, 805.63 535.57 C 801.84 537.08, 799.94 537.96, 796.20 539.55 C 792.45 541.15, 790.52 542.03, 786.90 543.54 C 783.29 545.06, 781.48 545.89, 778.11 547.14 C 774.73 548.40, 772.98 548.87, 770.05 549.81 C 767.11 550.75, 765.54 550.89, 763.44 551.84 C 761.33 552.79, 760.41 553.34, 759.52 554.57 C 758.62 555.80, 758.67 556.72, 758.96 557.98 C 759.24 559.23, 760.06 560.25, 760.95 560.86 C 761.84 561.47, 762.42 561.60, 763.41 561.03 C 764.40 560.45, 764.78 559.70, 765.89 557.98 C 766.99 556.26, 767.81 555.01, 768.94 552.43 C 770.07 549.84, 770.45 548.09, 771.52 545.07 C 772.58 542.05, 773.40 540.46, 774.28 537.32 C 775.15 534.17, 775.73 532.48, 775.88 529.35 C 776.03 526.23, 775.95 524.53, 775.04 521.70 C 774.13 518.87, 773.33 517.32, 771.33 515.20 C 769.32 513.09, 767.70 512.05, 765.01 511.11 C 762.32 510.17, 760.68 510.18, 757.87 510.50 C 755.06 510.82, 753.65 511.30, 750.94 512.69 C 748.23 514.08, 746.86 515.16, 744.30 517.45 C 741.75 519.75, 740.63 521.35, 738.17 524.16 C 735.72 526.98, 734.49 528.57, 732.02 531.52 C 729.56 534.48, 728.32 536.13, 725.85 538.95 C 723.39 541.76, 721.27 542.90, 719.70 545.58 C 718.13 548.26, 717.66 549.98, 718.00 552.35 C 718.34 554.72, 719.79 556.30, 721.41 557.43 C 723.04 558.57, 724.58 558.94, 726.13 558.02 C 727.68 557.09, 728.25 555.86, 729.14 552.80 C 730.03 549.74, 729.66 547.30, 730.58 542.71 C 731.50 538.12, 732.25 535.31, 733.74 529.86 C 735.22 524.40, 736.17 521.27, 738.00 515.44 C 739.84 509.61, 740.83 506.43, 742.92 500.72 C 745.01 495.01, 746.16 491.99, 748.44 486.89 C 750.73 481.78, 751.96 479.20, 754.33 475.20 C 756.69 471.20, 758.62 469.60, 760.25 466.90 C 761.89 464.20, 762.60 463.41, 762.52 461.71 C 762.44 460.01, 761.06 459.07, 759.88 458.41 C 758.70 457.75, 757.73 457.57, 756.62 458.40 C 755.52 459.23, 755.15 460.08, 754.35 462.56 C 753.54 465.05, 753.85 467.16, 752.60 470.81 C 751.34 474.46, 750.31 476.65, 748.06 480.82 C 745.80 484.99, 744.33 487.32, 741.32 491.66 C 738.30 496.01, 736.55 498.35, 732.99 502.55 C 729.43 506.75, 727.42 508.89, 723.53 512.67 C 719.64 516.44, 717.52 518.33, 713.53 521.43 C 709.53 524.54, 707.43 525.96, 703.57 528.19 C 699.72 530.42, 697.72 531.34, 694.26 532.57 C 690.80 533.80, 689.02 533.98, 686.28 534.33 C 683.54 534.68, 682.33 534.38, 680.57 534.33 C 678.81 534.28, 678.25 534.23, 677.47 534.08 C 676.69 533.94, 677.02 533.29, 676.67 533.59 C 676.31 533.89, 676.64 534.65, 675.71 535.60 C 674.77 536.54, 673.57 537.57, 672.01 538.32 C 670.44 539.07, 669.15 538.88, 667.89 539.36 C 666.63 539.84, 666.37 539.81, 665.72 540.72 C 665.07 541.62, 665.18 542.21, 664.63 543.87 C 664.07 545.54, 663.89 546.59, 662.95 549.03 C 662.00 551.46, 661.62 553.14, 659.89 556.04 C 658.16 558.93, 656.92 560.65, 654.28 563.50 C 651.65 566.36, 649.96 567.90, 646.73 570.32 C 643.51 572.74, 641.54 573.96, 638.15 575.60 C 634.76 577.24, 632.81 577.88, 629.76 578.54 C 626.71 579.19, 625.14 578.91, 622.92 578.88 C 620.70 578.86, 619.96 578.69, 618.66 578.39 C 617.37 578.09, 617.03 578.04, 616.44 577.38 C 615.84 576.71, 615.71 576.25, 615.69 575.07 C 615.68 573.90, 615.81 573.15, 616.36 571.52 C 616.91 569.89, 617.32 568.81, 618.44 566.92 C 619.56 565.03, 620.33 563.79, 621.96 562.07 C 623.58 560.35, 624.73 559.60, 626.58 558.33 C 628.42 557.05, 629.41 556.52, 631.17 555.70 C 632.94 554.88, 633.91 554.56, 635.38 554.21 C 636.85 553.87, 637.45 553.94, 638.53 553.99 C 639.60 554.03, 639.89 554.46, 640.75 554.43 C 641.61 554.39, 641.81 554.35, 642.85 553.81 C 643.88 553.27, 644.59 553.15, 645.93 551.73 C 647.28 550.32, 648.94 548.68, 649.57 546.74" style="stroke: black; fill: black;"/></svg>