<svg xmlns="http://www.w3.org/2000/svg" id="canvas" viewBox="384.615 376.375 733.651 175.376"><path d="M 424.03,404.05 C 422.46 404.96, 421.76 406.33, 420.77 409.57 C 419.78 412.82, 420.03 415.23, 419.08 420.28 C 418.13 425.33, 417.49 428.65, 416.02 434.83 C 414.54 441.01, 413.64 444.54, 411.70 451.18 C 409.75 457.82, 408.51 461.40, 406.32 468.01 C 404.12 474.61, 402.86 478.06, 400.73 484.20 C 398.59 490.34, 397.52 493.47, 395.63 498.71 C 393.74 503.94, 392.84 506.41, 391.27 510.39 C 389.69 514.37, 388.28 515.96, 387.76 518.62 C 387.25 521.27, 388.21 522.28, 388.70 523.66 C 389.18 525.05, 389.53 525.12, 390.18 525.54 C 390.84 525.95, 391.25 525.92, 391.98 525.74 C 392.70 525.57, 392.86 525.60, 393.80 524.66 C 394.74 523.72, 395.80 523.46, 396.67 521.03 C 397.53 518.59, 397.21 516.59, 398.11 512.49 C 399.02 508.38, 399.66 505.82, 401.18 500.49 C 402.69 495.17, 403.69 492.04, 405.68 485.86 C 407.67 479.69, 408.89 476.23, 411.11 469.61 C 413.34 462.99, 414.62 459.39, 416.80 452.77 C 418.98 446.14, 420.10 442.63, 422.03 436.48 C 423.95 430.34, 424.97 427.05, 426.42 422.04 C 427.88 417.02, 428.88 414.81, 429.32 411.41 C 429.76 408.01, 429.68 406.52, 428.62 405.04 C 427.56 403.57, 425.60 403.15, 424.03 404.05" style="stroke: black; fill: black;"/><path d="M 420.91,396.81 C 422.41 397.42, 423.23 397.07, 425.00 396.55 C 426.77 396.03, 427.41 395.55, 429.75 394.20 C 432.10 392.86, 433.20 391.26, 436.74 389.81 C 440.28 388.35, 442.69 387.66, 447.46 386.93 C 452.22 386.20, 455.10 385.99, 460.58 386.17 C 466.06 386.34, 469.15 386.58, 474.85 387.79 C 480.55 389.00, 483.63 389.88, 489.08 392.21 C 494.53 394.54, 497.37 396.07, 502.09 399.44 C 506.80 402.82, 509.08 404.82, 512.65 409.08 C 516.23 413.35, 517.79 415.75, 519.96 420.76 C 522.14 425.77, 522.98 428.54, 523.52 434.13 C 524.05 439.73, 523.91 442.70, 522.63 448.76 C 521.35 454.81, 520.17 458.08, 517.11 464.41 C 514.05 470.75, 511.99 474.15, 507.35 480.42 C 502.70 486.70, 499.79 489.92, 493.89 495.79 C 488.00 501.67, 484.54 504.59, 477.88 509.82 C 471.22 515.04, 467.50 517.60, 460.59 521.92 C 453.68 526.24, 449.95 528.24, 443.32 531.42 C 436.70 534.60, 433.28 535.92, 427.46 537.83 C 421.64 539.73, 418.68 540.37, 414.24 540.94 C 409.79 541.52, 407.83 541.01, 405.23 540.69 C 402.63 540.38, 402.23 539.92, 401.24 539.38 C 400.25 538.83, 400.72 538.67, 400.28 537.97 C 399.83 537.28, 400.08 536.32, 399.00 535.90 C 397.91 535.48, 395.95 535.05, 394.87 535.88 C 393.78 536.71, 393.18 538.09, 393.55 540.05 C 393.93 542.01, 394.54 543.95, 396.73 545.68 C 398.92 547.41, 400.77 548.44, 404.50 548.70 C 408.23 548.96, 410.46 548.21, 415.40 546.99 C 420.33 545.76, 423.18 544.88, 429.16 542.56 C 435.14 540.24, 438.56 538.81, 445.28 535.38 C 452.01 531.95, 455.77 529.88, 462.79 525.40 C 469.81 520.93, 473.57 518.33, 480.38 513.00 C 487.18 507.67, 490.72 504.74, 496.82 498.75 C 502.92 492.77, 505.96 489.52, 510.88 483.08 C 515.79 476.63, 518.03 473.17, 521.38 466.52 C 524.73 459.88, 526.13 456.44, 527.63 449.86 C 529.14 443.29, 529.42 439.91, 528.90 433.66 C 528.38 427.40, 527.44 424.20, 525.04 418.58 C 522.64 412.95, 520.84 410.26, 516.89 405.53 C 512.95 400.81, 510.43 398.65, 505.31 394.96 C 500.19 391.27, 497.14 389.66, 491.30 387.09 C 485.47 384.52, 482.21 383.57, 476.15 382.10 C 470.08 380.64, 466.84 380.30, 460.97 379.78 C 455.09 379.27, 452.11 379.31, 446.77 379.53 C 441.42 379.74, 438.73 380.04, 434.22 380.86 C 429.71 381.67, 427.34 382.07, 424.20 383.60 C 421.06 385.12, 419.87 386.51, 418.53 388.48 C 417.19 390.46, 417.02 391.81, 417.49 393.47 C 417.97 395.14, 419.41 396.19, 420.91 396.81" style="stroke: black; fill: black;"/><path d="M 588.11,476.49 C 588.50 474.82, 588.20 473.63, 586.88 471.92 C 585.56 470.22, 584.35 468.91, 581.51 467.96 C 578.66 467.02, 576.42 466.77, 572.64 467.20 C 568.85 467.62, 566.87 468.49, 562.60 470.08 C 558.32 471.66, 555.91 472.64, 551.25 475.11 C 546.59 477.57, 543.93 479.12, 539.30 482.40 C 534.67 485.69, 532.14 487.73, 528.11 491.52 C 524.08 495.31, 522.01 497.39, 519.14 501.36 C 516.27 505.32, 514.84 507.35, 513.77 511.35 C 512.70 515.36, 512.48 517.84, 513.78 521.37 C 515.09 524.91, 516.88 526.92, 520.30 529.01 C 523.73 531.10, 526.20 531.47, 530.92 531.84 C 535.64 532.20, 538.42 531.85, 543.89 530.84 C 549.36 529.84, 552.52 528.92, 558.27 526.81 C 564.03 524.70, 567.15 523.25, 572.66 520.29 C 578.18 517.33, 581.08 515.53, 585.86 511.99 C 590.64 508.45, 592.97 506.42, 596.56 502.60 C 600.16 498.79, 601.70 496.77, 603.81 492.93 C 605.93 489.08, 606.86 487.04, 607.12 483.38 C 607.38 479.72, 606.58 477.54, 605.11 474.63 C 603.65 471.71, 601.99 470.25, 599.78 468.80 C 597.58 467.35, 595.99 467.27, 594.10 467.38 C 592.22 467.49, 591.18 468.20, 590.37 469.36 C 589.57 470.52, 589.80 471.92, 590.07 473.17 C 590.34 474.41, 590.97 474.71, 591.71 475.58 C 592.45 476.46, 592.75 476.78, 593.76 477.54 C 594.77 478.31, 595.94 478.31, 596.77 479.41 C 597.61 480.50, 597.88 480.99, 597.92 483.02 C 597.96 485.06, 598.21 486.54, 596.97 489.59 C 595.72 492.63, 594.62 494.72, 591.68 498.25 C 588.73 501.78, 586.61 503.85, 582.25 507.22 C 577.89 510.58, 575.10 512.35, 569.90 515.07 C 564.69 517.80, 561.63 519.11, 556.22 520.85 C 550.80 522.58, 547.71 523.20, 542.83 523.74 C 537.95 524.28, 535.39 524.08, 531.80 523.56 C 528.21 523.05, 526.87 522.22, 524.90 521.15 C 522.93 520.09, 522.59 519.79, 521.94 518.24 C 521.29 516.69, 521.03 515.96, 521.66 513.40 C 522.29 510.85, 522.88 508.88, 525.10 505.48 C 527.33 502.08, 529.15 499.89, 532.76 496.41 C 536.38 492.92, 538.84 490.95, 543.19 488.05 C 547.54 485.15, 550.15 483.78, 554.52 481.92 C 558.88 480.06, 561.35 479.38, 565.01 478.75 C 568.67 478.13, 570.25 478.47, 572.81 478.79 C 575.37 479.12, 576.10 479.97, 577.81 480.38 C 579.53 480.79, 579.97 480.87, 581.39 480.85 C 582.81 480.83, 583.59 481.15, 584.93 480.28 C 586.28 479.41, 587.72 478.16, 588.11 476.49" style="stroke: black; fill: black;"/><path d="M 672.68,403.26 C 671.06 403.38, 670.10 403.66, 668.62 405.60 C 667.14 407.55, 666.91 409.12, 665.29 412.98 C 663.67 416.85, 662.85 419.63, 660.53 424.93 C 658.20 430.24, 656.70 433.44, 653.66 439.52 C 650.63 445.61, 648.73 449.04, 645.37 455.34 C 642.01 461.64, 640.11 465.02, 636.87 471.04 C 633.63 477.06, 631.98 480.11, 629.17 485.44 C 626.36 490.77, 625.00 493.31, 622.81 497.67 C 620.61 502.03, 619.36 503.84, 618.18 507.24 C 617.01 510.65, 616.62 512.29, 616.93 514.70 C 617.23 517.12, 618.56 518.28, 619.71 519.34 C 620.86 520.40, 621.82 520.30, 622.69 519.99 C 623.56 519.68, 623.75 518.46, 624.06 517.80 C 624.36 517.14, 624.03 517.27, 624.21 516.68 C 624.39 516.10, 624.58 516.29, 624.98 514.88 C 625.37 513.48, 625.41 512.60, 626.16 509.67 C 626.91 506.74, 627.15 504.60, 628.74 500.25 C 630.32 495.89, 631.55 493.26, 634.08 487.89 C 636.60 482.53, 638.20 479.44, 641.36 473.42 C 644.52 467.40, 646.42 464.04, 649.88 457.79 C 653.35 451.55, 655.31 448.14, 658.70 442.21 C 662.08 436.28, 663.83 433.16, 666.80 428.14 C 669.76 423.13, 671.36 420.77, 673.52 417.13 C 675.68 413.49, 676.95 412.36, 677.58 409.94 C 678.22 407.52, 677.68 406.35, 676.70 405.01 C 675.72 403.68, 674.30 403.14, 672.68 403.26" style="stroke: black; fill: black;"/><path d="M 701.39,454.91 C 700.31 453.48, 699.05 452.57, 696.33 452.42 C 693.60 452.27, 691.77 452.92, 687.77 454.16 C 683.78 455.39, 681.10 456.46, 676.34 458.59 C 671.58 460.72, 668.91 462.18, 663.98 464.81 C 659.04 467.44, 656.25 468.96, 651.66 471.73 C 647.08 474.51, 644.71 475.90, 641.06 478.70 C 637.42 481.49, 635.34 482.62, 633.45 485.70 C 631.55 488.79, 631.26 490.88, 631.57 494.14 C 631.89 497.41, 632.63 499.60, 635.03 502.03 C 637.43 504.46, 639.56 505.16, 643.59 506.31 C 647.62 507.46, 650.12 507.43, 655.18 507.79 C 660.23 508.16, 663.15 508.17, 668.86 508.11 C 674.58 508.06, 678.23 507.72, 683.74 507.54 C 689.25 507.36, 692.21 507.46, 696.42 507.22 C 700.63 506.99, 702.22 507.08, 704.78 506.36 C 707.34 505.64, 708.40 504.82, 709.21 503.63 C 710.02 502.44, 709.88 501.37, 708.83 500.40 C 707.79 499.42, 706.59 498.94, 703.99 498.75 C 701.40 498.57, 699.97 499.11, 695.86 499.47 C 691.74 499.84, 688.80 500.26, 683.42 500.58 C 678.03 500.90, 674.38 501.23, 668.93 501.08 C 663.47 500.94, 660.64 500.63, 656.14 499.83 C 651.65 499.03, 649.48 498.13, 646.46 497.09 C 643.44 496.05, 642.52 495.33, 641.04 494.61 C 639.56 493.90, 639.06 494.29, 639.04 493.51 C 639.01 492.73, 639.52 492.50, 640.90 490.71 C 642.28 488.92, 643.05 487.19, 645.94 484.57 C 648.82 481.94, 651.06 480.30, 655.30 477.60 C 659.54 474.90, 662.36 473.37, 667.15 471.07 C 671.94 468.77, 674.64 467.58, 679.24 466.10 C 683.83 464.62, 686.44 464.34, 690.13 463.67 C 693.82 463.00, 695.36 463.57, 697.68 462.76 C 700.00 461.95, 700.99 461.18, 701.73 459.61 C 702.47 458.04, 702.47 456.35, 701.39 454.91" style="stroke: black; fill: black;"/><path d="M 787.07,461.78 C 787.29 460.05, 786.81 458.83, 785.32 457.36 C 783.84 455.89, 782.44 455.03, 779.64 454.44 C 776.84 453.85, 774.77 453.59, 771.32 454.42 C 767.88 455.25, 766.16 456.57, 762.41 458.58 C 758.67 460.59, 756.62 461.78, 752.61 464.47 C 748.60 467.17, 746.30 468.82, 742.36 472.06 C 738.41 475.29, 736.29 477.22, 732.89 480.65 C 729.50 484.08, 727.79 485.81, 725.37 489.19 C 722.96 492.57, 721.55 494.20, 720.81 497.53 C 720.08 500.86, 720.47 502.91, 721.69 505.86 C 722.91 508.81, 724.15 510.47, 726.90 512.27 C 729.65 514.06, 731.72 514.77, 735.44 514.83 C 739.16 514.89, 741.34 513.97, 745.50 512.57 C 749.67 511.18, 751.90 510.11, 756.24 507.88 C 760.59 505.64, 762.88 504.27, 767.22 501.39 C 771.55 498.51, 773.89 496.78, 777.91 493.49 C 781.94 490.20, 783.94 488.18, 787.36 484.93 C 790.79 481.67, 792.89 480.18, 795.02 477.22 C 797.15 474.26, 798.20 472.40, 798.02 470.15 C 797.85 467.89, 796.28 466.45, 794.16 465.95 C 792.04 465.46, 789.63 465.73, 787.43 467.66 C 785.23 469.58, 784.80 471.96, 783.17 475.57 C 781.53 479.18, 780.74 481.75, 779.26 485.71 C 777.78 489.67, 776.79 491.77, 775.78 495.37 C 774.77 498.96, 774.32 500.70, 774.21 503.70 C 774.10 506.70, 774.42 508.19, 775.24 510.38 C 776.06 512.56, 777.01 513.64, 778.31 514.63 C 779.61 515.61, 780.57 515.66, 781.73 515.30 C 782.89 514.94, 783.56 513.77, 784.10 512.82 C 784.64 511.87, 784.41 511.48, 784.44 510.56 C 784.47 509.63, 784.25 509.44, 784.25 508.21 C 784.25 506.98, 784.20 506.43, 784.44 504.41 C 784.68 502.39, 784.61 501.05, 785.45 498.11 C 786.30 495.18, 786.99 493.14, 788.67 489.73 C 790.34 486.31, 791.99 484.20, 793.83 481.03 C 795.67 477.86, 797.38 476.47, 797.87 473.89 C 798.36 471.30, 797.48 469.52, 796.28 468.10 C 795.09 466.69, 793.66 466.14, 791.89 466.83 C 790.13 467.52, 789.46 468.98, 787.45 471.55 C 785.44 474.12, 784.67 476.39, 781.86 479.69 C 779.05 482.98, 777.10 484.92, 773.39 488.03 C 769.68 491.15, 767.42 492.77, 763.31 495.27 C 759.21 497.77, 756.92 498.92, 752.87 500.54 C 748.83 502.16, 746.57 502.75, 743.09 503.37 C 739.61 503.98, 737.85 503.56, 735.46 503.61 C 733.07 503.66, 732.37 503.76, 731.13 503.61 C 729.90 503.46, 729.53 503.58, 729.30 502.85 C 729.06 502.12, 729.32 501.76, 729.95 499.97 C 730.58 498.19, 730.76 496.71, 732.46 493.92 C 734.16 491.12, 735.52 489.16, 738.46 485.98 C 741.39 482.81, 743.44 480.91, 747.14 478.03 C 750.84 475.14, 753.12 473.65, 756.94 471.56 C 760.75 469.48, 762.94 468.57, 766.23 467.61 C 769.52 466.65, 771.06 466.89, 773.37 466.76 C 775.69 466.63, 776.29 466.92, 777.80 466.96 C 779.31 467.01, 779.63 467.18, 780.92 466.98 C 782.21 466.78, 783.01 467.02, 784.24 465.98 C 785.47 464.94, 786.86 463.50, 787.07 461.78" style="stroke: black; fill: black;"/><path d="M 861.76,432.13 C 860.17 432.98, 859.46 434.13, 858.66 436.69 C 857.86 439.24, 858.40 440.93, 857.76 444.90 C 857.12 448.86, 856.73 451.67, 855.45 456.51 C 854.18 461.35, 853.24 464.12, 851.38 469.10 C 849.52 474.08, 848.30 476.79, 846.15 481.40 C 844.00 486.00, 842.77 488.34, 840.64 492.11 C 838.50 495.88, 836.85 497.44, 835.47 500.26 C 834.08 503.07, 833.95 504.29, 833.70 506.20 C 833.45 508.11, 833.61 508.83, 834.21 509.81 C 834.82 510.78, 835.58 511.14, 836.72 511.06 C 837.85 510.98, 838.46 510.70, 839.87 509.40 C 841.29 508.10, 842.27 507.34, 843.78 504.55 C 845.29 501.76, 845.71 499.52, 847.42 495.45 C 849.14 491.38, 850.28 488.96, 852.36 484.20 C 854.44 479.44, 855.71 476.71, 857.82 471.65 C 859.94 466.58, 861.13 463.80, 862.94 458.87 C 864.74 453.94, 865.61 451.14, 866.84 446.99 C 868.07 442.84, 869.15 441.03, 869.10 438.11 C 869.05 435.20, 868.05 433.60, 866.58 432.40 C 865.11 431.20, 863.34 431.27, 861.76 432.13" style="stroke: black; fill: black;"/><path d="M 857.30,421.24 C 859.11 421.58, 860.42 420.78, 862.76 419.45 C 865.10 418.12, 865.88 416.44, 869.01 414.61 C 872.14 412.77, 874.28 411.46, 878.43 410.28 C 882.57 409.10, 885.12 408.80, 889.75 408.72 C 894.37 408.64, 896.98 408.84, 901.55 409.86 C 906.13 410.88, 908.59 411.73, 912.62 413.81 C 916.66 415.89, 918.64 417.30, 921.73 420.27 C 924.81 423.24, 926.17 425.02, 928.04 428.66 C 929.90 432.29, 930.61 434.26, 931.06 438.44 C 931.50 442.62, 931.46 444.88, 930.27 449.54 C 929.08 454.21, 928.01 456.80, 925.09 461.76 C 922.17 466.72, 920.12 469.41, 915.66 474.32 C 911.20 479.23, 908.36 481.83, 902.79 486.31 C 897.22 490.80, 893.86 493.02, 887.82 496.77 C 881.79 500.51, 878.40 502.30, 872.61 505.05 C 866.83 507.80, 863.76 508.99, 858.91 510.51 C 854.07 512.03, 851.67 512.16, 848.39 512.66 C 845.11 513.16, 844.12 512.66, 842.50 513.00 C 840.88 513.34, 840.84 513.99, 840.28 514.37 C 839.72 514.74, 840.13 514.60, 839.70 514.86 C 839.27 515.13, 838.35 515.05, 838.12 515.70 C 837.89 516.35, 837.72 517.11, 838.56 518.13 C 839.40 519.14, 840.06 520.35, 842.33 520.77 C 844.61 521.20, 846.20 521.18, 849.93 520.25 C 853.66 519.33, 856.00 518.26, 861.00 516.15 C 866.00 514.03, 869.04 512.73, 874.92 509.68 C 880.80 506.63, 884.22 504.80, 890.41 500.89 C 896.60 496.99, 900.04 494.76, 905.86 490.16 C 911.68 485.56, 914.68 482.98, 919.50 477.90 C 924.33 472.82, 926.63 470.10, 930.00 464.76 C 933.38 459.43, 934.81 456.60, 936.36 451.21 C 937.91 445.81, 938.20 442.94, 937.76 437.81 C 937.33 432.67, 936.45 430.03, 934.20 425.54 C 931.94 421.04, 930.18 418.87, 926.49 415.32 C 922.80 411.77, 920.41 410.21, 915.73 407.79 C 911.05 405.37, 908.28 404.48, 903.09 403.23 C 897.91 401.98, 895.11 401.71, 889.81 401.53 C 884.52 401.35, 881.60 401.40, 876.60 402.34 C 871.59 403.27, 868.85 404.40, 864.78 406.19 C 860.71 407.98, 858.45 408.97, 856.24 411.28 C 854.02 413.59, 853.48 415.76, 853.69 417.75 C 853.91 419.75, 855.49 420.90, 857.30 421.24" style="stroke: black; fill: black;"/><path d="M 948.68,498.86 C 949.41 500.31, 950.26 500.86, 952.25 501.52 C 954.24 502.18, 955.72 502.77, 958.63 502.16 C 961.54 501.54, 963.27 500.09, 966.79 498.45 C 970.32 496.82, 972.38 495.84, 976.27 494.00 C 980.16 492.17, 982.39 491.16, 986.23 489.28 C 990.08 487.40, 992.17 486.52, 995.50 484.60 C 998.84 482.68, 1000.79 482.00, 1002.92 479.66 C 1005.04 477.31, 1005.75 475.67, 1006.13 472.87 C 1006.52 470.07, 1006.38 468.19, 1004.85 465.65 C 1003.33 463.12, 1001.81 461.13, 998.50 460.20 C 995.19 459.27, 992.83 460.12, 988.30 461.01 C 983.77 461.91, 981.15 462.72, 975.83 464.66 C 970.51 466.59, 967.33 467.90, 961.70 470.68 C 956.06 473.46, 952.90 475.23, 947.68 478.57 C 942.46 481.91, 939.75 483.78, 935.60 487.39 C 931.45 490.99, 929.50 492.82, 926.93 496.59 C 924.36 500.37, 923.21 502.38, 922.76 506.26 C 922.31 510.14, 922.77 512.65, 924.70 516.00 C 926.64 519.36, 928.62 520.85, 932.43 523.04 C 936.25 525.23, 938.68 525.88, 943.78 526.94 C 948.88 528.01, 951.91 528.17, 957.94 528.38 C 963.97 528.58, 967.39 528.41, 973.90 527.96 C 980.41 527.51, 984.46 526.96, 990.49 526.12 C 996.52 525.27, 999.64 524.81, 1004.05 523.72 C 1008.45 522.64, 1011.01 522.08, 1012.52 520.68 C 1014.02 519.29, 1013.52 517.33, 1011.59 516.75 C 1009.66 516.16, 1007.25 517.07, 1002.86 517.74 C 998.46 518.40, 995.49 519.21, 989.62 520.07 C 983.76 520.93, 979.78 521.66, 973.52 522.04 C 967.25 522.42, 963.90 522.44, 958.31 521.97 C 952.72 521.50, 949.87 520.93, 945.57 519.68 C 941.27 518.42, 939.46 517.36, 936.80 515.70 C 934.14 514.04, 933.45 513.10, 932.29 511.38 C 931.12 509.65, 930.82 509.23, 930.96 507.05 C 931.10 504.87, 931.21 503.47, 932.98 500.48 C 934.76 497.49, 936.26 495.47, 939.85 492.11 C 943.44 488.74, 946.03 486.79, 950.93 483.65 C 955.84 480.51, 958.97 478.79, 964.38 476.40 C 969.78 474.01, 972.98 472.91, 977.98 471.70 C 982.98 470.48, 985.67 470.37, 989.36 470.33 C 993.05 470.29, 994.44 471.43, 996.42 471.48 C 998.39 471.53, 998.74 470.79, 999.23 470.56 C 999.72 470.34, 999.56 470.05, 998.87 470.36 C 998.18 470.67, 997.47 470.86, 995.79 472.10 C 994.11 473.35, 993.17 474.73, 990.48 476.57 C 987.79 478.42, 985.88 479.59, 982.33 481.35 C 978.78 483.11, 976.53 484.06, 972.73 485.38 C 968.93 486.70, 966.82 487.28, 963.34 487.96 C 959.86 488.63, 957.82 488.03, 955.34 488.74 C 952.85 489.45, 952.26 490.40, 950.92 491.51 C 949.57 492.61, 949.06 492.79, 948.61 494.26 C 948.16 495.73, 947.95 497.40, 948.68 498.86" style="stroke: black; fill: black;"/><path d="M 1049.03,469.60 C 1047.48 469.94, 1047.00 470.42, 1045.75 471.91 C 1044.51 473.40, 1043.69 474.33, 1042.80 477.06 C 1041.92 479.79, 1042.08 481.94, 1041.32 485.58 C 1040.56 489.22, 1039.96 491.42, 1039.02 495.26 C 1038.08 499.09, 1037.41 501.09, 1036.61 504.76 C 1035.81 508.43, 1035.01 510.25, 1035.02 513.59 C 1035.03 516.93, 1035.43 518.70, 1036.66 521.44 C 1037.88 524.19, 1038.86 525.55, 1041.15 527.32 C 1043.45 529.10, 1045.09 529.95, 1048.13 530.33 C 1051.18 530.71, 1053.13 530.63, 1056.38 529.24 C 1059.64 527.85, 1060.98 526.14, 1064.42 523.36 C 1067.86 520.59, 1069.71 518.92, 1073.59 515.36 C 1077.47 511.81, 1079.72 509.65, 1083.82 505.58 C 1087.93 501.50, 1090.22 499.11, 1094.12 494.97 C 1098.01 490.83, 1100.00 488.55, 1103.30 484.88 C 1106.59 481.21, 1108.34 479.55, 1110.59 476.62 C 1112.84 473.69, 1113.67 472.43, 1114.55 470.23 C 1115.42 468.02, 1115.42 466.88, 1114.96 465.61 C 1114.49 464.33, 1113.57 463.76, 1112.23 463.84 C 1110.89 463.92, 1109.92 464.43, 1108.26 466.00 C 1106.60 467.57, 1105.99 468.80, 1103.93 471.69 C 1101.88 474.58, 1100.89 476.67, 1097.98 480.45 C 1095.07 484.22, 1093.15 486.50, 1089.40 490.57 C 1085.65 494.64, 1083.35 496.97, 1079.23 500.77 C 1075.10 504.58, 1072.76 506.59, 1068.77 509.58 C 1064.79 512.57, 1062.67 513.92, 1059.29 515.72 C 1055.91 517.53, 1054.10 517.68, 1051.88 518.61 C 1049.66 519.54, 1049.24 520.00, 1048.18 520.37 C 1047.12 520.73, 1047.05 520.84, 1046.58 520.44 C 1046.11 520.04, 1045.99 519.71, 1045.85 518.37 C 1045.71 517.03, 1045.79 516.09, 1045.88 513.74 C 1045.97 511.40, 1045.75 509.81, 1046.29 506.65 C 1046.82 503.49, 1047.40 501.49, 1048.54 497.94 C 1049.69 494.39, 1050.57 492.31, 1052.00 488.89 C 1053.44 485.48, 1054.91 483.80, 1055.70 480.86 C 1056.48 477.91, 1056.36 476.31, 1055.93 474.18 C 1055.49 472.05, 1054.89 471.14, 1053.51 470.22 C 1052.14 469.30, 1050.58 469.26, 1049.03 469.60" style="stroke: black; fill: black;"/></svg>