<svg xmlns="http://www.w3.org/2000/svg" id="canvas" viewBox="354.504 426.092 691.541 164.878"><path d="M 389.10,451.76 C 387.64 452.80, 387.10 454.43, 386.19 457.83 C 385.29 461.23, 385.44 463.65, 384.57 468.76 C 383.69 473.86, 383.11 477.24, 381.81 483.36 C 380.50 489.48, 379.72 492.92, 378.03 499.37 C 376.34 505.82, 375.28 509.26, 373.36 515.60 C 371.45 521.94, 370.33 525.24, 368.46 531.06 C 366.58 536.88, 365.65 539.78, 363.98 544.68 C 362.31 549.58, 361.39 551.88, 360.12 555.56 C 358.84 559.23, 357.93 560.76, 357.60 563.07 C 357.28 565.37, 357.81 565.99, 358.47 567.07 C 359.14 568.16, 360.13 568.35, 360.94 568.49 C 361.76 568.63, 362.82 568.08, 362.55 567.77 C 362.28 567.46, 359.97 566.87, 359.59 566.94 C 359.21 567.00, 359.94 567.91, 360.66 568.11 C 361.39 568.32, 362.23 568.58, 363.22 567.97 C 364.21 567.36, 364.83 567.16, 365.60 565.07 C 366.37 562.97, 366.30 561.24, 367.08 557.49 C 367.87 553.74, 368.27 551.30, 369.52 546.32 C 370.78 541.33, 371.64 538.42, 373.34 532.56 C 375.04 526.70, 376.12 523.38, 378.04 517.01 C 379.96 510.65, 381.05 507.18, 382.93 500.73 C 384.82 494.28, 385.80 490.85, 387.48 484.75 C 389.16 478.64, 390.06 475.29, 391.35 470.20 C 392.64 465.12, 393.52 462.84, 393.94 459.32 C 394.37 455.80, 394.45 454.10, 393.48 452.59 C 392.51 451.08, 390.55 450.71, 389.10 451.76" style="stroke: black; fill: black;"/><path d="M 388.40,447.02 C 389.81 447.59, 390.59 447.27, 392.36 446.76 C 394.13 446.25, 394.92 445.85, 397.24 444.50 C 399.56 443.15, 400.65 441.53, 403.96 440.01 C 407.27 438.49, 409.43 437.76, 413.79 436.88 C 418.15 436.00, 420.78 435.69, 425.75 435.63 C 430.72 435.57, 433.50 435.65, 438.66 436.58 C 443.82 437.50, 446.65 438.26, 451.57 440.25 C 456.48 442.25, 459.03 443.56, 463.25 446.54 C 467.46 449.53, 469.48 451.32, 472.65 455.19 C 475.82 459.06, 477.24 461.26, 479.11 465.88 C 480.99 470.51, 481.68 473.04, 482.05 478.31 C 482.41 483.58, 482.20 486.46, 480.93 492.22 C 479.66 497.98, 478.55 501.14, 475.69 507.13 C 472.82 513.12, 470.91 516.26, 466.61 522.17 C 462.32 528.08, 459.63 531.11, 454.21 536.69 C 448.79 542.27, 445.62 545.09, 439.50 550.07 C 433.37 555.05, 429.95 557.44, 423.59 561.57 C 417.22 565.70, 413.78 567.65, 407.67 570.74 C 401.57 573.82, 398.40 575.14, 393.06 577.00 C 387.72 578.85, 385.03 579.46, 380.96 580.02 C 376.90 580.58, 375.10 579.98, 372.73 579.81 C 370.36 579.64, 369.96 579.50, 369.11 579.17 C 368.26 578.85, 368.77 578.75, 368.46 578.19 C 368.15 577.63, 368.51 576.80, 367.57 576.37 C 366.63 575.94, 364.79 575.37, 363.76 576.04 C 362.72 576.71, 362.12 577.95, 362.39 579.71 C 362.67 581.47, 363.17 583.21, 365.13 584.86 C 367.08 586.50, 368.73 587.69, 372.15 587.93 C 375.57 588.17, 377.69 587.31, 382.23 586.06 C 386.77 584.81, 389.36 583.98, 394.86 581.69 C 400.35 579.41, 403.51 577.98, 409.71 574.64 C 415.90 571.30, 419.37 569.29, 425.84 565.00 C 432.30 560.71, 435.77 558.28, 442.03 553.19 C 448.30 548.11, 451.53 545.26, 457.15 539.57 C 462.76 533.89, 465.56 530.83, 470.12 524.76 C 474.67 518.68, 476.76 515.47, 479.91 509.19 C 483.06 502.92, 484.37 499.60, 485.87 493.36 C 487.37 487.12, 487.74 483.89, 487.42 477.98 C 487.11 472.07, 486.38 469.08, 484.29 463.81 C 482.21 458.54, 480.57 456.00, 477.02 451.62 C 473.46 447.25, 471.18 445.27, 466.52 441.94 C 461.87 438.61, 459.09 437.21, 453.74 434.97 C 448.40 432.73, 445.37 431.90, 439.79 430.75 C 434.21 429.59, 431.26 429.44, 425.86 429.20 C 420.45 428.96, 417.71 429.14, 412.76 429.56 C 407.81 429.99, 405.35 430.38, 401.11 431.33 C 396.88 432.29, 394.55 432.75, 391.60 434.33 C 388.64 435.92, 387.60 437.33, 386.34 439.24 C 385.09 441.16, 384.91 442.35, 385.32 443.91 C 385.73 445.47, 387.00 446.45, 388.40 447.02" style="stroke: black; fill: black;"/><path d="M 544.04,519.83 C 544.38 518.27, 544.11 517.09, 542.83 515.49 C 541.55 513.89, 540.35 512.77, 537.65 511.85 C 534.95 510.93, 532.91 510.51, 529.33 510.87 C 525.74 511.22, 523.77 512.10, 519.71 513.61 C 515.65 515.11, 513.44 516.05, 509.03 518.39 C 504.62 520.74, 502.09 522.21, 497.66 525.32 C 493.24 528.44, 490.77 530.36, 486.89 533.96 C 483.01 537.57, 481.07 539.57, 478.26 543.34 C 475.44 547.10, 474.00 548.97, 472.83 552.77 C 471.66 556.57, 471.41 558.86, 472.40 562.33 C 473.39 565.81, 474.77 567.97, 477.78 570.15 C 480.80 572.33, 483.17 572.75, 487.48 573.24 C 491.80 573.73, 494.32 573.40, 499.37 572.59 C 504.41 571.79, 507.31 571.02, 512.70 569.20 C 518.09 567.38, 521.07 566.17, 526.32 563.50 C 531.57 560.84, 534.34 559.15, 538.95 555.87 C 543.55 552.59, 545.81 550.69, 549.34 547.09 C 552.87 543.48, 554.40 541.51, 556.61 537.83 C 558.82 534.15, 559.88 532.19, 560.39 528.67 C 560.90 525.16, 560.33 523.20, 559.15 520.25 C 557.97 517.29, 556.68 515.75, 554.49 513.90 C 552.31 512.05, 550.48 511.41, 548.20 511.02 C 545.92 510.63, 544.60 511.19, 543.10 511.95 C 541.61 512.72, 541.03 513.61, 540.74 514.85 C 540.44 516.09, 541.06 517.17, 541.64 518.17 C 542.23 519.18, 542.82 519.27, 543.66 519.87 C 544.51 520.47, 544.83 520.81, 545.88 521.18 C 546.93 521.55, 547.84 521.25, 548.91 521.73 C 549.99 522.21, 550.69 522.40, 551.24 523.57 C 551.80 524.74, 551.90 525.41, 551.69 527.57 C 551.47 529.73, 551.57 531.34, 550.18 534.38 C 548.78 537.42, 547.63 539.42, 544.70 542.77 C 541.76 546.11, 539.70 548.01, 535.50 551.11 C 531.30 554.20, 528.63 555.83, 523.70 558.24 C 518.76 560.64, 515.86 561.71, 510.81 563.14 C 505.77 564.57, 502.91 565.02, 498.48 565.38 C 494.04 565.74, 491.76 565.49, 488.64 564.95 C 485.52 564.40, 484.53 563.63, 482.86 562.64 C 481.18 561.65, 480.75 561.51, 480.26 560.00 C 479.76 558.48, 479.65 557.58, 480.39 555.06 C 481.13 552.54, 481.76 550.66, 483.96 547.40 C 486.16 544.14, 487.88 542.06, 491.38 538.75 C 494.87 535.44, 497.26 533.59, 501.43 530.84 C 505.59 528.10, 508.10 526.79, 512.22 525.04 C 516.34 523.29, 518.60 522.65, 522.05 522.08 C 525.50 521.52, 527.02 521.93, 529.47 522.21 C 531.92 522.48, 532.62 523.12, 534.30 523.46 C 535.98 523.80, 536.49 523.93, 537.86 523.90 C 539.23 523.87, 539.90 524.12, 541.14 523.31 C 542.38 522.50, 543.71 521.40, 544.04 519.83" style="stroke: black; fill: black;"/><path d="M 626.70,453.94 C 625.15 454.04, 624.16 454.38, 622.63 456.29 C 621.10 458.21, 620.79 459.77, 619.04 463.53 C 617.29 467.29, 616.32 470.02, 613.88 475.08 C 611.45 480.14, 609.93 483.16, 606.88 488.83 C 603.83 494.49, 601.94 497.64, 598.63 503.41 C 595.32 509.18, 593.47 512.24, 590.34 517.68 C 587.22 523.12, 585.64 525.85, 583.00 530.61 C 580.36 535.37, 579.17 537.62, 577.14 541.49 C 575.11 545.35, 573.86 547.03, 572.83 549.93 C 571.80 552.83, 571.87 554.10, 571.98 556.00 C 572.10 557.91, 572.78 558.57, 573.41 559.45 C 574.04 560.32, 574.54 560.33, 575.15 560.39 C 575.77 560.45, 576.01 559.99, 576.48 559.76 C 576.96 559.53, 576.96 559.73, 577.53 559.25 C 578.10 558.77, 578.61 558.70, 579.33 557.38 C 580.05 556.05, 580.34 555.28, 581.12 552.64 C 581.90 549.99, 581.87 548.05, 583.23 544.16 C 584.60 540.26, 585.63 537.97, 587.95 533.17 C 590.26 528.38, 591.77 525.63, 594.79 520.19 C 597.80 514.74, 599.63 511.68, 603.01 505.96 C 606.39 500.24, 608.34 497.11, 611.69 491.59 C 615.05 486.06, 616.80 483.13, 619.80 478.35 C 622.80 473.57, 624.49 471.22, 626.69 467.68 C 628.90 464.14, 630.11 463.01, 630.85 460.63 C 631.58 458.26, 631.21 457.12, 630.38 455.79 C 629.55 454.45, 628.25 453.84, 626.70 453.94" style="stroke: black; fill: black;"/><path d="M 648.35,502.79 C 647.38 501.42, 646.21 500.60, 643.69 500.31 C 641.16 500.02, 639.41 500.35, 635.72 501.34 C 632.02 502.34, 629.56 503.37, 625.20 505.26 C 620.83 507.15, 618.41 508.47, 613.89 510.80 C 609.37 513.14, 606.82 514.48, 602.60 516.94 C 598.38 519.41, 596.17 520.61, 592.79 523.12 C 589.41 525.63, 587.47 526.62, 585.70 529.48 C 583.92 532.34, 583.67 534.36, 583.91 537.43 C 584.16 540.49, 584.82 542.42, 586.94 544.81 C 589.05 547.21, 590.87 548.17, 594.48 549.41 C 598.10 550.64, 600.44 550.62, 605.02 551.00 C 609.61 551.38, 612.27 551.33, 617.42 551.31 C 622.58 551.28, 625.45 551.15, 630.80 550.89 C 636.14 550.63, 639.34 550.34, 644.14 550.01 C 648.94 549.68, 651.35 549.90, 654.78 549.26 C 658.21 548.63, 660.06 548.03, 661.29 546.83 C 662.52 545.63, 662.33 544.17, 660.91 543.25 C 659.49 542.33, 657.63 542.26, 654.17 542.23 C 650.70 542.20, 648.34 542.68, 643.60 543.10 C 638.86 543.52, 635.68 544.09, 630.48 544.33 C 625.29 544.57, 622.47 544.62, 617.61 544.32 C 612.76 544.02, 610.17 543.68, 606.19 542.84 C 602.21 541.99, 600.39 541.05, 597.71 540.10 C 595.03 539.16, 594.13 538.73, 592.78 538.11 C 591.44 537.49, 590.96 537.72, 590.98 537.00 C 591.00 536.28, 591.56 536.08, 592.89 534.52 C 594.21 532.96, 594.96 531.50, 597.62 529.19 C 600.29 526.89, 602.34 525.38, 606.22 522.99 C 610.10 520.59, 612.68 519.24, 617.03 517.23 C 621.39 515.23, 623.84 514.20, 628.02 512.96 C 632.19 511.73, 634.58 511.66, 637.92 511.06 C 641.25 510.46, 642.58 510.72, 644.70 509.95 C 646.82 509.17, 647.77 508.61, 648.50 507.18 C 649.23 505.75, 649.31 504.16, 648.35 502.79" style="stroke: black; fill: black;"/><path d="M 728.92,507.06 C 729.02 505.46, 728.51 504.43, 727.09 503.14 C 725.66 501.85, 724.43 501.11, 721.81 500.60 C 719.18 500.10, 717.17 499.79, 713.96 500.60 C 710.75 501.41, 709.16 502.69, 705.74 504.65 C 702.32 506.61, 700.49 507.82, 696.85 510.40 C 693.21 512.98, 691.12 514.54, 687.56 517.56 C 684.01 520.58, 682.12 522.34, 679.08 525.50 C 676.04 528.66, 674.38 530.20, 672.36 533.36 C 670.34 536.51, 669.42 538.19, 668.98 541.28 C 668.55 544.37, 668.95 546.15, 670.20 548.79 C 671.45 551.44, 672.64 552.84, 675.24 554.49 C 677.84 556.14, 679.75 556.99, 683.20 557.04 C 686.64 557.10, 688.63 556.12, 692.45 554.77 C 696.26 553.43, 698.27 552.42, 702.27 550.30 C 706.26 548.17, 708.43 546.87, 712.41 544.14 C 716.40 541.41, 718.53 539.76, 722.21 536.66 C 725.89 533.55, 727.67 531.67, 730.81 528.61 C 733.95 525.54, 735.93 524.16, 737.92 521.33 C 739.91 518.51, 740.87 516.69, 740.75 514.48 C 740.63 512.27, 739.27 510.84, 737.32 510.26 C 735.36 509.68, 733.15 509.88, 730.98 511.57 C 728.82 513.26, 728.17 515.35, 726.51 518.69 C 724.85 522.03, 724.14 524.50, 722.70 528.28 C 721.25 532.05, 720.35 534.04, 719.29 537.56 C 718.22 541.09, 717.52 542.81, 717.37 545.89 C 717.22 548.97, 717.61 550.66, 718.52 552.96 C 719.43 555.27, 720.49 556.38, 721.92 557.42 C 723.34 558.45, 724.46 558.54, 725.64 558.13 C 726.83 557.72, 727.45 556.41, 727.84 555.37 C 728.22 554.32, 727.73 553.86, 727.56 552.90 C 727.39 551.94, 727.08 551.80, 726.98 550.57 C 726.89 549.33, 726.81 548.76, 727.10 546.73 C 727.39 544.70, 727.50 543.31, 728.44 540.43 C 729.37 537.54, 730.10 535.58, 731.78 532.32 C 733.47 529.06, 735.16 527.14, 736.85 524.15 C 738.54 521.15, 739.85 519.73, 740.23 517.34 C 740.61 514.95, 739.86 513.42, 738.76 512.21 C 737.65 510.99, 736.39 510.57, 734.71 511.29 C 733.04 512.00, 732.29 513.35, 730.40 515.79 C 728.51 518.22, 727.82 520.37, 725.26 523.46 C 722.69 526.55, 720.96 528.33, 717.59 531.25 C 714.22 534.16, 712.16 535.67, 708.41 538.01 C 704.65 540.35, 702.49 541.44, 698.80 542.95 C 695.10 544.45, 693.07 544.99, 689.93 545.53 C 686.79 546.08, 685.29 545.57, 683.10 545.67 C 680.92 545.77, 680.20 546.08, 678.99 546.04 C 677.78 546.00, 677.38 546.06, 677.06 545.47 C 676.75 544.88, 676.86 544.57, 677.41 543.08 C 677.95 541.59, 678.30 540.46, 679.79 538.02 C 681.28 535.57, 682.32 533.74, 684.87 530.85 C 687.42 527.95, 689.23 526.22, 692.54 523.54 C 695.84 520.86, 697.93 519.43, 701.39 517.44 C 704.85 515.45, 706.86 514.56, 709.84 513.58 C 712.82 512.60, 714.16 512.78, 716.30 512.54 C 718.43 512.30, 719.07 512.46, 720.51 512.40 C 721.96 512.34, 722.30 512.48, 723.52 512.23 C 724.73 511.97, 725.51 512.16, 726.59 511.12 C 727.67 510.09, 728.82 508.65, 728.92 507.06" style="stroke: black; fill: black;"/><path d="M 801.14,480.99 C 799.69 481.80, 799.12 482.86, 798.35 485.18 C 797.58 487.50, 797.90 488.99, 797.29 492.61 C 796.68 496.22, 796.44 498.78, 795.31 503.26 C 794.18 507.74, 793.37 510.37, 791.64 514.99 C 789.90 519.62, 788.71 522.11, 786.64 526.39 C 784.58 530.67, 783.39 532.92, 781.31 536.39 C 779.22 539.86, 777.77 541.27, 776.23 543.75 C 774.69 546.23, 774.14 547.11, 773.61 548.78 C 773.08 550.44, 773.44 551.16, 773.57 552.08 C 773.69 553.00, 773.94 552.93, 774.25 553.40 C 774.56 553.87, 774.55 554.16, 775.10 554.43 C 775.65 554.71, 775.95 555.00, 776.99 554.76 C 778.03 554.53, 778.87 554.51, 780.30 553.24 C 781.72 551.98, 782.59 551.11, 784.11 548.43 C 785.64 545.75, 786.19 543.68, 787.92 539.84 C 789.65 536.01, 790.74 533.72, 792.77 529.26 C 794.80 524.80, 796.04 522.29, 798.05 517.56 C 800.06 512.82, 801.14 510.18, 802.82 505.59 C 804.50 501.01, 805.41 498.49, 806.45 494.64 C 807.50 490.79, 808.22 489.04, 808.05 486.34 C 807.88 483.64, 806.98 482.22, 805.60 481.15 C 804.22 480.08, 802.59 480.19, 801.14 480.99" style="stroke: black; fill: black;"/><path d="M 795.75,469.64 C 797.42 469.99, 798.59 469.36, 800.74 468.23 C 802.89 467.11, 803.62 465.70, 806.50 464.01 C 809.37 462.32, 811.25 460.99, 815.14 459.78 C 819.03 458.57, 821.46 458.22, 825.94 457.98 C 830.41 457.74, 833.04 457.83, 837.52 458.58 C 842.00 459.33, 844.36 459.98, 848.32 461.72 C 852.27 463.46, 854.21 464.69, 857.29 467.27 C 860.37 469.86, 861.76 471.44, 863.71 474.63 C 865.67 477.82, 866.42 479.52, 867.07 483.22 C 867.72 486.92, 867.78 488.92, 866.97 493.12 C 866.16 497.32, 865.39 499.68, 863.02 504.21 C 860.64 508.73, 858.94 511.20, 855.09 515.75 C 851.25 520.30, 848.74 522.76, 843.79 526.97 C 838.84 531.19, 835.84 533.28, 830.36 536.83 C 824.89 540.38, 821.77 542.07, 816.42 544.75 C 811.08 547.42, 808.25 548.65, 803.64 550.22 C 799.03 551.79, 796.73 552.04, 793.38 552.61 C 790.03 553.18, 788.72 552.78, 786.88 553.06 C 785.05 553.35, 784.81 553.58, 784.19 554.03 C 783.58 554.48, 783.86 554.97, 783.81 555.31 C 783.76 555.64, 784.33 555.86, 783.94 555.70 C 783.55 555.54, 782.40 554.39, 781.84 554.53 C 781.29 554.66, 780.97 555.41, 781.17 556.37 C 781.36 557.32, 781.62 558.37, 782.83 559.29 C 784.04 560.21, 784.78 560.86, 787.22 560.96 C 789.66 561.07, 791.32 560.86, 795.03 559.80 C 798.74 558.75, 801.02 557.79, 805.78 555.69 C 810.54 553.59, 813.35 552.27, 818.81 549.32 C 824.26 546.37, 827.41 544.65, 833.05 540.95 C 838.69 537.25, 841.80 535.15, 847.02 530.81 C 852.24 526.48, 854.92 524.03, 859.15 519.28 C 863.39 514.52, 865.37 512.01, 868.20 507.05 C 871.02 502.08, 872.16 499.43, 873.28 494.44 C 874.39 489.46, 874.52 486.79, 873.78 482.11 C 873.04 477.43, 872.02 475.05, 869.59 471.05 C 867.15 467.04, 865.33 465.16, 861.60 462.09 C 857.88 459.02, 855.55 457.68, 850.97 455.68 C 846.39 453.67, 843.72 453.00, 838.68 452.05 C 833.64 451.10, 830.87 450.96, 825.77 450.94 C 820.68 450.92, 817.91 451.04, 813.20 451.96 C 808.48 452.89, 805.94 453.89, 802.19 455.58 C 798.44 457.27, 796.42 458.24, 794.46 460.42 C 792.50 462.60, 792.14 464.63, 792.40 466.47 C 792.66 468.32, 794.08 469.29, 795.75 469.64" style="stroke: black; fill: black;"/><path d="M 886.71,543.24 C 887.34 544.58, 888.05 545.13, 889.82 545.75 C 891.59 546.37, 892.95 546.81, 895.58 546.34 C 898.20 545.86, 899.81 544.85, 902.96 543.37 C 906.11 541.89, 907.90 540.76, 911.34 538.94 C 914.77 537.12, 916.74 536.11, 920.14 534.26 C 923.54 532.41, 925.40 531.61, 928.34 529.69 C 931.28 527.78, 932.94 526.98, 934.84 524.68 C 936.73 522.38, 937.47 520.87, 937.83 518.20 C 938.18 515.54, 938.03 513.78, 936.62 511.36 C 935.22 508.94, 933.86 507.17, 930.81 506.11 C 927.76 505.06, 925.51 505.40, 921.37 506.10 C 917.23 506.80, 914.90 507.79, 910.13 509.63 C 905.35 511.46, 902.57 512.68, 897.51 515.28 C 892.45 517.87, 889.57 519.50, 884.83 522.61 C 880.10 525.72, 877.67 527.49, 873.84 530.82 C 870.00 534.16, 868.17 535.78, 865.67 539.28 C 863.17 542.78, 861.91 544.64, 861.35 548.31 C 860.79 551.98, 861.17 554.39, 862.85 557.63 C 864.53 560.87, 866.28 562.39, 869.75 564.52 C 873.23 566.65, 875.55 567.21, 880.22 568.29 C 884.88 569.36, 887.59 569.61, 893.09 569.88 C 898.60 570.15, 901.75 569.99, 907.76 569.63 C 913.77 569.27, 917.57 568.82, 923.17 568.06 C 928.77 567.30, 931.67 566.90, 935.77 565.84 C 939.87 564.77, 942.27 564.11, 943.67 562.76 C 945.08 561.41, 944.62 559.66, 942.80 559.07 C 940.98 558.49, 938.67 559.25, 934.57 559.83 C 930.48 560.41, 927.76 561.21, 922.33 561.97 C 916.90 562.73, 913.18 563.36, 907.43 563.64 C 901.68 563.93, 898.64 563.93, 893.59 563.39 C 888.54 562.85, 886.05 562.19, 882.20 560.96 C 878.34 559.72, 876.66 558.72, 874.31 557.22 C 871.97 555.71, 871.42 554.99, 870.46 553.44 C 869.50 551.89, 869.28 551.49, 869.52 549.46 C 869.76 547.44, 869.93 546.09, 871.66 543.32 C 873.39 540.54, 874.84 538.71, 878.15 535.60 C 881.46 532.49, 883.77 530.66, 888.21 527.77 C 892.65 524.87, 895.49 523.31, 900.34 521.12 C 905.18 518.94, 908.01 517.93, 912.43 516.83 C 916.84 515.73, 919.20 515.72, 922.40 515.63 C 925.60 515.54, 926.72 516.32, 928.43 516.37 C 930.13 516.42, 930.48 515.98, 930.95 515.90 C 931.41 515.82, 931.35 515.60, 930.76 515.97 C 930.16 516.35, 929.51 516.62, 927.95 517.76 C 926.39 518.90, 925.38 519.98, 922.95 521.67 C 920.52 523.37, 918.91 524.56, 915.79 526.24 C 912.67 527.93, 910.70 528.87, 907.34 530.12 C 903.99 531.38, 902.04 531.75, 899.02 532.51 C 895.99 533.28, 894.33 533.13, 892.23 533.93 C 890.13 534.73, 889.63 535.49, 888.52 536.51 C 887.40 537.54, 887.03 537.72, 886.67 539.06 C 886.31 540.41, 886.08 541.91, 886.71 543.24" style="stroke: black; fill: black;"/><path d="M 981.01,514.35 C 979.56 514.74, 979.20 515.35, 978.03 516.82 C 976.86 518.29, 975.95 519.13, 975.15 521.70 C 974.35 524.28, 974.61 526.33, 974.03 529.69 C 973.44 533.05, 973.01 535.00, 972.22 538.51 C 971.42 542.01, 970.73 543.84, 970.04 547.22 C 969.36 550.60, 968.73 552.32, 968.81 555.40 C 968.88 558.47, 969.25 560.08, 970.42 562.59 C 971.58 565.09, 972.49 566.36, 974.65 567.92 C 976.82 569.48, 978.38 570.11, 981.22 570.38 C 984.07 570.66, 985.91 570.68, 988.89 569.29 C 991.87 567.90, 993.01 566.17, 996.12 563.44 C 999.23 560.72, 1000.89 559.07, 1004.42 555.66 C 1007.94 552.26, 1009.98 550.24, 1013.74 546.43 C 1017.50 542.62, 1019.62 540.40, 1023.23 536.61 C 1026.84 532.83, 1028.68 530.79, 1031.81 527.50 C 1034.93 524.21, 1036.72 522.84, 1038.85 520.16 C 1040.98 517.47, 1041.68 516.10, 1042.46 514.08 C 1043.24 512.05, 1043.14 511.16, 1042.74 510.03 C 1042.34 508.90, 1041.62 508.45, 1040.44 508.44 C 1039.26 508.44, 1038.46 508.71, 1036.83 510.01 C 1035.21 511.32, 1034.35 512.38, 1032.30 514.96 C 1030.25 517.55, 1029.34 519.50, 1026.59 522.94 C 1023.83 526.38, 1022.03 528.44, 1018.53 532.18 C 1015.04 535.93, 1012.92 538.10, 1009.11 541.67 C 1005.30 545.23, 1003.17 547.14, 999.49 550.01 C 995.82 552.87, 993.85 554.21, 990.73 556.00 C 987.61 557.78, 985.91 557.90, 983.89 558.93 C 981.86 559.96, 981.52 560.61, 980.59 561.14 C 979.67 561.67, 979.62 561.84, 979.27 561.57 C 978.93 561.31, 978.91 561.01, 978.87 559.82 C 978.83 558.63, 978.89 557.75, 979.08 555.61 C 979.26 553.47, 979.23 552.03, 979.78 549.12 C 980.33 546.21, 980.81 544.34, 981.81 541.04 C 982.81 537.74, 983.56 535.86, 984.78 532.63 C 985.99 529.41, 987.33 527.72, 987.88 524.91 C 988.44 522.11, 988.07 520.63, 987.56 518.61 C 987.04 516.60, 986.61 515.70, 985.30 514.85 C 983.99 513.99, 982.46 513.95, 981.01 514.35" style="stroke: black; fill: black;"/></svg>